<svg width="173" height="160" viewBox="0 0 173 160" fill="none" xmlns="http://www.w3.org/2000/svg">
<path d="M153.081 48.668H7.37781C5.76579 48.668 4.45898 49.9689 4.45898 51.5737V140.976C4.45898 142.581 5.76579 143.882 7.37781 143.882H153.081C154.693 143.882 156 142.581 156 140.976V51.5737C156 49.9689 154.693 48.668 153.081 48.668Z" fill="url(#paint0_linear_3190_54037)"/>
<path d="M9.80273 55.2254V72.0264C9.80273 72.0264 22.881 66.3274 26.959 55.0005L9.80273 55.2254Z" fill="#FDFDFD"/>
<path d="M10.0821 140.124H26.959C26.959 140.124 21.2284 127.123 9.80273 123.057L10.0821 140.124Z" fill="#FDFDFD"/>
<path d="M150.904 140.124H134.045C134.045 140.124 139.776 127.105 151.177 123.075L150.904 140.124Z" fill="#FDFDFD"/>
<path d="M151.16 55.2254V72.0264C151.16 72.0264 138.099 66.3274 134.045 55.0005L151.16 55.2254Z" fill="#FDFDFD"/>
<path d="M130.247 139.361H30.1211V140.124H130.247V139.361Z" fill="#FDFDFD"/>
<path d="M130.247 54.9771H30.1211V55.7405H130.247V54.9771Z" fill="#FDFDFD"/>
<path d="M10.5918 120.731L10.5918 74.228H9.82494L9.82494 120.731H10.5918Z" fill="#FDFDFD"/>
<path d="M151.162 120.725V74.2222H150.395V120.725H151.162Z" fill="#FDFDFD"/>
<path d="M103.859 78.897H19.5458C18.9089 78.897 18.3926 79.411 18.3926 80.0451V84.7262C18.3926 85.3602 18.9089 85.8742 19.5458 85.8742H103.859C104.496 85.8742 105.012 85.3602 105.012 84.7262V80.0451C105.012 79.411 104.496 78.897 103.859 78.897Z" fill="#93C4E5"/>
<path d="M103.859 88.8628H19.5458C18.9089 88.8628 18.3926 89.3768 18.3926 90.0109V94.692C18.3926 95.326 18.9089 95.8401 19.5458 95.8401H103.859C104.496 95.8401 105.012 95.326 105.012 94.692V90.0109C105.012 89.3768 104.496 88.8628 103.859 88.8628Z" fill="#93C4E5"/>
<path d="M103.859 105.841H19.5458C18.9089 105.841 18.3926 106.355 18.3926 106.989C18.3926 107.623 18.9089 108.137 19.5458 108.137H103.859C104.496 108.137 105.012 107.623 105.012 106.989C105.012 106.355 104.496 105.841 103.859 105.841Z" fill="#93C4E5"/>
<path d="M103.859 111.298H19.5458C18.9089 111.298 18.3926 111.812 18.3926 112.446C18.3926 113.08 18.9089 113.594 19.5458 113.594H103.859C104.496 113.594 105.012 113.08 105.012 112.446C105.012 111.812 104.496 111.298 103.859 111.298Z" fill="#93C4E5"/>
<path d="M103.859 116.748H19.5458C18.9089 116.748 18.3926 117.262 18.3926 117.896C18.3926 118.53 18.9089 119.044 19.5458 119.044H103.859C104.496 119.044 105.012 118.53 105.012 117.896C105.012 117.262 104.496 116.748 103.859 116.748Z" fill="#93C4E5"/>
<path d="M49.5685 35.1875L43.707 50.9115L80.4509 67.0142L114.787 51.1009L110.715 35.1875H49.5685Z" fill="url(#paint1_linear_3190_54037)"/>
<path d="M14.9512 32.8378L82.7796 42.7326L143.546 29.6066L74.1837 23.3276L14.9512 32.8378Z" fill="url(#paint2_radial_3190_54037)"/>
<path d="M79.1221 32.2165C80.5141 32.2165 81.6426 31.8138 81.6426 31.317C81.6426 30.8202 80.5141 30.4175 79.1221 30.4175C77.73 30.4175 76.6016 30.8202 76.6016 31.317C76.6016 31.8138 77.73 32.2165 79.1221 32.2165Z" fill="#173353"/>
<path d="M79.2496 31.3291C77.8764 32.1517 76.4794 32.9269 75.0883 33.6963C73.6973 34.4656 72.2765 35.2054 70.8557 35.9214C69.435 36.6375 68.0142 37.3654 66.5815 38.0578C65.1489 38.7502 63.7103 39.4426 62.2717 40.1173L61.8555 40.1942C61.9109 40.1998 61.9666 40.1998 62.022 40.1942H62.0933L62.1884 40.1587C62.2279 40.1439 62.2642 40.1218 62.2954 40.0936L62.3549 40.0403C62.3369 40.0741 62.323 40.1099 62.3133 40.1468C62.2717 40.2889 62.2479 40.4782 62.2063 40.7386L61.9744 42.1412L61.5226 44.9404C61.2135 46.8223 60.8628 48.6983 60.518 50.5743C60.1732 52.4503 59.7392 54.2907 59.3647 56.1845C58.9902 58.0782 58.5503 59.895 58.0391 61.7533C58.1104 59.8359 58.2768 57.9303 58.4374 56.0247C58.5979 54.1191 58.8238 52.2195 59.0318 50.3257C59.2399 48.432 59.5014 46.5323 59.7808 44.6445L60.2029 41.8098C60.2802 41.3364 60.3456 40.8629 60.4348 40.3895C60.4777 40.112 60.5372 39.8373 60.6131 39.5669C60.6729 39.3746 60.7589 39.1914 60.8687 39.0224C61.0051 38.8135 61.1963 38.6457 61.4216 38.5372C61.4793 38.511 61.5389 38.4892 61.5999 38.4721H61.7188C61.7878 38.4624 61.8579 38.4624 61.9269 38.4721L61.5107 38.549C62.9612 37.8921 64.4117 37.2352 65.8801 36.6138C67.3484 35.9924 68.8048 35.3592 70.285 34.7556C71.7653 34.152 73.2574 33.572 74.7257 32.9802C76.194 32.3884 77.7278 31.8262 79.2496 31.3291Z" fill="#ED6D2E"/>
<path d="M58.3893 59.4448C58.3893 59.4448 53.4849 62.8417 53.9962 68.8366C54.5074 74.8315 52.7656 74.5829 52.7656 74.5829C52.7656 74.5829 62.9904 67.2447 58.3893 59.4448Z" fill="#ED6D2E"/>
<path d="M129.26 103.522L125.123 119.122L120.016 112.855L113.15 114.523L119.184 100.019L129.26 103.522Z" fill="#D8D103"/>
<path d="M125.338 103.522L129.475 119.122L134.582 112.855L141.448 114.523L135.42 100.019L125.338 103.522Z" fill="#EFE411"/>
<path d="M126.825 108.209C134.813 108.209 141.288 101.762 141.288 93.8105C141.288 85.8585 134.813 79.4121 126.825 79.4121C118.837 79.4121 112.361 85.8585 112.361 93.8105C112.361 101.762 118.837 108.209 126.825 108.209Z" fill="#DDC807"/>
<path d="M126.822 105.179C133.129 105.179 138.242 100.089 138.242 93.8103C138.242 87.5317 133.129 82.4419 126.822 82.4419C120.515 82.4419 115.402 87.5317 115.402 93.8103C115.402 100.089 120.515 105.179 126.822 105.179Z" fill="url(#paint3_linear_3190_54037)"/>
<defs>
<linearGradient id="paint0_linear_3190_54037" x1="4.45898" y1="96.2779" x2="156" y2="96.2779" gradientUnits="userSpaceOnUse">
<stop offset="0.02" stop-color="#4D7CAB"/>
<stop offset="1" stop-color="#6599C4"/>
</linearGradient>
<linearGradient id="paint1_linear_3190_54037" x1="43.707" y1="51.1009" x2="114.787" y2="51.1009" gradientUnits="userSpaceOnUse">
<stop stop-color="#2D516B"/>
<stop offset="1" stop-color="#173353"/>
</linearGradient>
<radialGradient id="paint2_radial_3190_54037" cx="0" cy="0" r="1" gradientUnits="userSpaceOnUse" gradientTransform="translate(79.2485 33.0283) scale(45.9819 27.4652)">
<stop offset="0.02" stop-color="#2D5576"/>
<stop offset="1" stop-color="#173655"/>
</radialGradient>
<linearGradient id="paint3_linear_3190_54037" x1="136.714" y1="88.129" x2="116.969" y2="99.5744" gradientUnits="userSpaceOnUse">
<stop offset="0.02" stop-color="#CEBC19"/>
<stop offset="1" stop-color="#E8E213"/>
</linearGradient>
</defs>
</svg>
