<svg width="170" height="159" viewBox="0 0 170 159" fill="none" xmlns="http://www.w3.org/2000/svg">
<g clip-path="url(#clip0_3190_54145)">
<path d="M154.778 49.2114H23.0947C21.9411 49.2114 21.0059 50.1529 21.0059 51.3144V138.781C21.0059 139.943 21.9411 140.884 23.0947 140.884H154.778C155.932 140.884 156.867 139.943 156.867 138.781V51.3144C156.867 50.1529 155.932 49.2114 154.778 49.2114Z" fill="#173353"/>
<path d="M153.344 53.5029H25.2168V136.586H153.344V53.5029Z" fill="#456F93"/>
<path d="M2.46289 140.047H175V141.201C175 143 174.29 144.725 173.026 145.997C171.763 147.27 170.049 147.984 168.262 147.984H9.20093C7.41389 147.984 5.70005 147.27 4.43642 145.997C3.17279 144.725 2.46289 143 2.46289 141.201V140.014V140.047Z" fill="#C5C4C4"/>
<path d="M149.186 58.3486H29.2637V132.657H149.186V58.3486Z" fill="white"/>
<path d="M149.239 58.3486H29.2637V61.9678H149.239V58.3486Z" fill="#ED6D2E"/>
<path d="M31.7144 60.7745C32.0508 60.7745 32.3234 60.5 32.3234 60.1614C32.3234 59.8228 32.0508 59.5483 31.7144 59.5483C31.3781 59.5483 31.1055 59.8228 31.1055 60.1614C31.1055 60.5 31.3781 60.7745 31.7144 60.7745Z" fill="white"/>
<path d="M33.4742 60.7745C33.8105 60.7745 34.0832 60.5 34.0832 60.1614C34.0832 59.8228 33.8105 59.5483 33.4742 59.5483C33.1379 59.5483 32.8652 59.8228 32.8652 60.1614C32.8652 60.5 33.1379 60.7745 33.4742 60.7745Z" fill="white"/>
<path d="M35.3531 60.7745C35.6894 60.7745 35.9621 60.5 35.9621 60.1614C35.9621 59.8228 35.6894 59.5483 35.3531 59.5483C35.0168 59.5483 34.7441 59.8228 34.7441 60.1614C34.7441 60.5 35.0168 60.7745 35.3531 60.7745Z" fill="white"/>
<path d="M142.605 60.9395H140.254V61.19H142.605V60.9395Z" fill="white"/>
<path d="M147.899 60.7999L146.236 59.1265L146.06 59.3036L147.723 60.9771L147.899 60.7999Z" fill="white"/>
<path d="M146.244 60.9777L147.906 59.3042L147.73 59.1271L146.068 60.8005L146.244 60.9777Z" fill="white"/>
<path d="M145.155 59.2256H143.328V61.0648H145.155V59.2256Z" stroke="white" stroke-width="0.25" stroke-miterlimit="10"/>
<path d="M88.3809 70.498C88.3809 70.498 106.716 79.0021 108.516 60.8403C110.317 42.6785 108.235 41.8281 108.235 41.8281C108.235 41.8281 94.7785 34.6425 89.2453 42.7708C83.7121 50.8991 84.511 51.5847 84.511 51.5847C84.511 51.5847 83.9806 52.7252 82.0685 51.4529C80.1565 50.1805 76.83 49.429 75.8674 52.0132C74.9048 54.5974 76.0966 59.7526 80.1892 62.4027C80.1892 62.4027 88.1714 79.4306 83.2341 92.6812C83.2341 92.6812 96.8935 99.168 97.0965 86.9656L94.176 68.9818L88.3809 70.498Z" fill="#FBC376"/>
<path d="M94.7205 72.2978C94.7205 72.2978 89.2659 71.3881 87.5176 69.6016C87.5176 69.6016 91.584 77.5783 95.3361 76.0554L94.7205 72.2978Z" fill="#DDA058"/>
<path d="M83.3385 52.9233C85.831 49.8117 88.0732 46.505 90.0438 43.0348C93.1346 37.5302 99.1261 38.9673 99.1261 38.9673C99.1261 38.9673 103.959 48.9481 109.832 46.766C115.706 44.584 119.524 39.8177 116.538 36.8051L113.545 33.799C113.545 33.799 90.7903 15.6108 83.3385 33.799C83.3385 33.799 70.7661 31.6169 71.7942 46.766C72.8222 61.9152 76.7969 64.6642 81.564 65.7321L80.2151 62.37C80.2151 62.37 74.2825 58.2037 75.8933 51.9806C75.8933 52.0135 77.8512 47.0627 83.3385 52.9233Z" fill="black"/>
<path d="M84.5776 78.1519C84.5776 78.1519 88.0874 82.9511 95.8208 78.9891C95.8208 78.9891 114.679 81.0525 119.008 86.445C123.336 91.8375 126.866 112.814 126.866 112.814H50.7695L57.0558 92.5758C58.1157 90.2584 59.6304 88.1807 61.5085 86.4678C63.3866 84.7548 65.5895 83.442 67.9846 82.6083C73.434 80.8302 78.9726 79.3426 84.5776 78.1519Z" fill="url(#paint0_linear_3190_54145)"/>
<path d="M68.586 102.016L64.9648 112.808H65.9012L68.586 102.016Z" fill="#173353"/>
<path d="M111.986 102.016L115.601 112.808H114.665L111.986 102.016Z" fill="#173353"/>
<path d="M136.936 34.2603L126.904 38.954L129.235 34.2603H136.936Z" fill="#173353"/>
<path d="M130.374 35.4072L154.832 35.4072C160.473 35.4072 165.047 30.8029 165.047 25.1232V21.5304C165.047 15.8507 160.473 11.2464 154.832 11.2464L130.374 11.2464C124.733 11.2464 120.159 15.8507 120.159 21.5304V25.1232C120.159 30.8029 124.733 35.4072 130.374 35.4072Z" fill="#173353"/>
<path d="M157.425 17.2456H127.781C127.362 17.2456 127.021 17.588 127.021 18.0103V18.2806C127.021 18.7029 127.362 19.0453 127.781 19.0453H157.425C157.844 19.0453 158.184 18.7029 158.184 18.2806V18.0103C158.184 17.588 157.844 17.2456 157.425 17.2456Z" fill="white"/>
<path d="M157.425 21.9326H127.781C127.362 21.9326 127.021 22.275 127.021 22.6973V22.9676C127.021 23.3899 127.362 23.7323 127.781 23.7323H157.425C157.844 23.7323 158.184 23.3899 158.184 22.9676V22.6973C158.184 22.275 157.844 21.9326 157.425 21.9326Z" fill="white"/>
<path d="M157.425 27.0615H127.781C127.362 27.0615 127.021 27.4039 127.021 27.8262V28.0965C127.021 28.5189 127.362 28.8612 127.781 28.8612H157.425C157.844 28.8612 158.184 28.5189 158.184 28.0965V27.8262C158.184 27.4039 157.844 27.0615 157.425 27.0615Z" fill="white"/>
<path d="M149.266 112.155H29.291V132.657H149.266V112.155Z" fill="#ED6D2E"/>
<path d="M78.7825 127.442C81.9577 127.442 84.5318 124.851 84.5318 121.654C84.5318 118.458 81.9577 115.866 78.7825 115.866C75.6072 115.866 73.0332 118.458 73.0332 121.654C73.0332 124.851 75.6072 127.442 78.7825 127.442Z" fill="#AB441A"/>
<path d="M98.6809 127.442C101.856 127.442 104.43 124.851 104.43 121.654C104.43 118.458 101.856 115.866 98.6809 115.866C95.5057 115.866 92.9316 118.458 92.9316 121.654C92.9316 124.851 95.5057 127.442 98.6809 127.442Z" fill="#AB441A"/>
<path d="M98.8581 119.222H98.5635C98.0969 119.222 97.7188 119.603 97.7188 120.073V122.189C97.7188 122.658 98.0969 123.039 98.5635 123.039H98.8581C99.3246 123.039 99.7028 122.658 99.7028 122.189V120.073C99.7028 119.603 99.3246 119.222 98.8581 119.222Z" fill="white"/>
<path d="M97.1758 122.175C97.2164 122.556 97.3965 122.909 97.681 123.163C97.9655 123.418 98.3339 123.557 98.7146 123.553C99.0883 123.556 99.4489 123.414 99.7227 123.158C99.9965 122.902 100.163 122.551 100.188 122.175" stroke="white" stroke-width="0.5" stroke-linecap="round" stroke-linejoin="round"/>
<path d="M98.7129 123.447V124.172" stroke="white" stroke-width="0.5" stroke-miterlimit="10" stroke-linecap="round"/>
<path d="M79.2078 120.31H77.7869C77.1215 120.31 76.582 120.853 76.582 121.523V121.951C76.582 122.621 77.1215 123.164 77.7869 123.164H79.2078C79.8733 123.164 80.4127 122.621 80.4127 121.951V121.523C80.4127 120.853 79.8733 120.31 79.2078 120.31Z" fill="white"/>
<path d="M80.4121 121.002L81.5384 120.151V123.164L80.4121 122.386V121.002Z" fill="white"/>
</g>
<defs>
<linearGradient id="paint0_linear_3190_54145" x1="50.7695" y1="95.483" x2="126.846" y2="95.483" gradientUnits="userSpaceOnUse">
<stop offset="0.02" stop-color="#4D7CAB"/>
<stop offset="1" stop-color="#6599C4"/>
</linearGradient>
<clipPath id="clip0_3190_54145">
<rect width="170" height="159" fill="white"/>
</clipPath>
</defs>
</svg>
