<svg width="173" height="160" viewBox="0 0 173 160" fill="none" xmlns="http://www.w3.org/2000/svg">
<g clip-path="url(#clip0_3190_55946)">
<path d="M163.687 101.409L161.229 98.7305L154.09 105.224L156.549 107.903L163.687 101.409Z" fill="#4D4C4C"/>
<path d="M159.443 96.2692L159.279 96.4187C158.581 97.0534 158.532 98.1309 159.17 98.8255L163.384 103.417C164.022 104.111 165.104 104.16 165.802 103.525L165.966 103.376C166.664 102.741 166.713 101.663 166.075 100.969L161.861 96.3776C161.223 95.683 160.141 95.6345 159.443 96.2692Z" fill="#4D4C4C"/>
<path d="M167.186 94.5785L168.049 95.4383C169.823 97.2044 170.82 99.5998 170.82 102.097C170.82 104.595 169.823 106.99 168.049 108.756L167.397 109.406L152.944 95.0174L153.394 94.5696C155.225 92.7516 157.706 91.7314 160.292 91.7331C162.878 91.7347 165.357 92.7582 167.186 94.5785Z" fill="url(#paint0_linear_3190_55946)"/>
<path d="M146.277 143.138L146.128 143.223C145.474 143.599 145.25 144.432 145.627 145.083L151.286 154.84C151.664 155.491 152.5 155.715 153.154 155.339L153.303 155.253C153.957 154.877 154.181 154.044 153.804 153.393L148.145 143.636C147.767 142.985 146.931 142.761 146.277 143.138Z" fill="#4D4C4C"/>
<path d="M118.081 155.244L118.23 155.33C118.884 155.706 119.72 155.483 120.098 154.832L125.757 145.074C126.134 144.423 125.91 143.59 125.256 143.214L125.107 143.129C124.453 142.753 123.617 142.976 123.239 143.627L117.58 153.384C117.202 154.036 117.427 154.868 118.081 155.244Z" fill="#4D4C4C"/>
<path d="M137.464 46.6499H9.11044C6.88992 46.6499 5.08984 48.4419 5.08984 50.6524V136.048C5.08984 138.259 6.88992 140.051 9.11044 140.051H137.464C139.685 140.051 141.485 138.259 141.485 136.048V50.6524C141.485 48.4419 139.685 46.6499 137.464 46.6499Z" fill="url(#paint1_linear_3190_55946)"/>
<path d="M134.634 50.8677H12.1263C10.4504 50.8677 9.0918 52.2202 9.0918 53.8886V132.806C9.0918 134.474 10.4504 135.827 12.1263 135.827H134.634C136.309 135.827 137.668 134.474 137.668 132.806V53.8886C137.668 52.2202 136.309 50.8677 134.634 50.8677Z" fill="white"/>
<path d="M35.9893 61.9064C38.2099 61.9064 40.0099 60.1144 40.0099 57.9039C40.0099 55.6934 38.2099 53.9014 35.9893 53.9014C33.7688 53.9014 31.9688 55.6934 31.9688 57.9039C31.9688 60.1144 33.7688 61.9064 35.9893 61.9064Z" fill="url(#paint2_linear_3190_55946)"/>
<path d="M55.2003 61.9064C57.4208 61.9064 59.2209 60.1144 59.2209 57.9039C59.2209 55.6934 57.4208 53.9014 55.2003 53.9014C52.9798 53.9014 51.1797 55.6934 51.1797 57.9039C51.1797 60.1144 52.9798 61.9064 55.2003 61.9064Z" fill="url(#paint3_linear_3190_55946)"/>
<path d="M74.419 61.9064C76.6395 61.9064 78.4396 60.1144 78.4396 57.9039C78.4396 55.6934 76.6395 53.9014 74.419 53.9014C72.1985 53.9014 70.3984 55.6934 70.3984 57.9039C70.3984 60.1144 72.1985 61.9064 74.419 61.9064Z" fill="url(#paint4_linear_3190_55946)"/>
<path d="M93.8858 61.9064C96.1063 61.9064 97.9064 60.1144 97.9064 57.9039C97.9064 55.6934 96.1063 53.9014 93.8858 53.9014C91.6653 53.9014 89.8652 55.6934 89.8652 57.9039C89.8652 60.1144 91.6653 61.9064 93.8858 61.9064Z" fill="url(#paint5_linear_3190_55946)"/>
<path d="M113.105 61.9064C115.325 61.9064 117.125 60.1144 117.125 57.9039C117.125 55.6934 115.325 53.9014 113.105 53.9014C110.884 53.9014 109.084 55.6934 109.084 57.9039C109.084 60.1144 110.884 61.9064 113.105 61.9064Z" fill="url(#paint6_linear_3190_55946)"/>
<path d="M36.1671 38.9614H35.8108C34.2789 38.9614 33.0371 40.1977 33.0371 41.7227V57.3275C33.0371 58.8525 34.2789 60.0887 35.8108 60.0887H36.1671C37.6989 60.0887 38.9408 58.8525 38.9408 57.3275V41.7227C38.9408 40.1977 37.6989 38.9614 36.1671 38.9614Z" fill="url(#paint7_linear_3190_55946)"/>
<path d="M55.38 38.9614H55.0237C53.4918 38.9614 52.25 40.1977 52.25 41.7227V57.3275C52.25 58.8525 53.4918 60.0887 55.0237 60.0887H55.38C56.9118 60.0887 58.1537 58.8525 58.1537 57.3275V41.7227C58.1537 40.1977 56.9118 38.9614 55.38 38.9614Z" fill="url(#paint8_linear_3190_55946)"/>
<path d="M74.5987 38.9614H74.2425C72.7106 38.9614 71.4688 40.1977 71.4688 41.7227V57.3275C71.4688 58.8525 72.7106 60.0887 74.2425 60.0887H74.5987C76.1306 60.0887 77.3724 58.8525 77.3724 57.3275V41.7227C77.3724 40.1977 76.1306 38.9614 74.5987 38.9614Z" fill="url(#paint9_linear_3190_55946)"/>
<path d="M94.0655 38.9614H93.7092C92.1774 38.9614 90.9355 40.1977 90.9355 41.7227V57.3275C90.9355 58.8525 92.1774 60.0887 93.7092 60.0887H94.0655C95.5974 60.0887 96.8392 58.8525 96.8392 57.3275V41.7227C96.8392 40.1977 95.5974 38.9614 94.0655 38.9614Z" fill="url(#paint10_linear_3190_55946)"/>
<path d="M113.282 38.9614H112.926C111.394 38.9614 110.152 40.1977 110.152 41.7227V57.3275C110.152 58.8525 111.394 60.0887 112.926 60.0887H113.282C114.814 60.0887 116.056 58.8525 116.056 57.3275V41.7227C116.056 40.1977 114.814 38.9614 113.282 38.9614Z" fill="url(#paint11_linear_3190_55946)"/>
<path d="M26.2099 69.7212H17.4753C15.2162 69.7212 13.3848 71.5444 13.3848 73.7934V82.4888C13.3848 84.7378 15.2162 86.561 17.4753 86.561H26.2099C28.4691 86.561 30.3005 84.7378 30.3005 82.4888V73.7934C30.3005 71.5444 28.4691 69.7212 26.2099 69.7212Z" fill="#DDDDDD"/>
<path d="M46.7021 69.7212H37.9675C35.7084 69.7212 33.877 71.5444 33.877 73.7934V82.4888C33.877 84.7378 35.7084 86.561 37.9675 86.561H46.7021C48.9613 86.561 50.7927 84.7378 50.7927 82.4888V73.7934C50.7927 71.5444 48.9613 69.7212 46.7021 69.7212Z" fill="#DDDDDD"/>
<path d="M67.7471 69.7212H59.0124C56.7533 69.7212 54.9219 71.5444 54.9219 73.7934V82.4888C54.9219 84.7378 56.7533 86.561 59.0124 86.561H67.7471C70.0062 86.561 71.8376 84.7378 71.8376 82.4888V73.7934C71.8376 71.5444 70.0062 69.7212 67.7471 69.7212Z" fill="#DDDDDD"/>
<path d="M88.2373 69.7212H79.5027C77.2435 69.7212 75.4121 71.5444 75.4121 73.7934V82.4888C75.4121 84.7378 77.2435 86.561 79.5027 86.561H88.2373C90.4964 86.561 92.3279 84.7378 92.3279 82.4888V73.7934C92.3279 71.5444 90.4964 69.7212 88.2373 69.7212Z" fill="#DDDDDD"/>
<path d="M108.614 69.7212H99.8796C97.6205 69.7212 95.7891 71.5444 95.7891 73.7934V82.4888C95.7891 84.7378 97.6205 86.561 99.8796 86.561H108.614C110.873 86.561 112.705 84.7378 112.705 82.4888V73.7934C112.705 71.5444 110.873 69.7212 108.614 69.7212Z" fill="#DDDDDD"/>
<path d="M129.099 69.7212H120.364C118.105 69.7212 116.273 71.5444 116.273 73.7934V82.4888C116.273 84.7378 118.105 86.561 120.364 86.561H129.099C131.358 86.561 133.189 84.7378 133.189 82.4888V73.7934C133.189 71.5444 131.358 69.7212 129.099 69.7212Z" fill="#DDDDDD"/>
<path d="M26.2099 89.9746H17.4753C15.2162 89.9746 13.3848 91.7978 13.3848 94.0468V102.742C13.3848 104.991 15.2162 106.814 17.4753 106.814H26.2099C28.4691 106.814 30.3005 104.991 30.3005 102.742V94.0468C30.3005 91.7978 28.4691 89.9746 26.2099 89.9746Z" fill="#DDDDDD"/>
<path d="M46.7021 89.9746H37.9675C35.7084 89.9746 33.877 91.7978 33.877 94.0468V102.742C33.877 104.991 35.7084 106.814 37.9675 106.814H46.7021C48.9613 106.814 50.7927 104.991 50.7927 102.742V94.0468C50.7927 91.7978 48.9613 89.9746 46.7021 89.9746Z" fill="#DDDDDD"/>
<path d="M67.7471 89.9746H59.0124C56.7533 89.9746 54.9219 91.7978 54.9219 94.0468V102.742C54.9219 104.991 56.7533 106.814 59.0124 106.814H67.7471C70.0062 106.814 71.8376 104.991 71.8376 102.742V94.0468C71.8376 91.7978 70.0062 89.9746 67.7471 89.9746Z" fill="#DDDDDD"/>
<path d="M88.2373 89.9746H79.5027C77.2435 89.9746 75.4121 91.7978 75.4121 94.0468V102.742C75.4121 104.991 77.2435 106.814 79.5027 106.814H88.2373C90.4964 106.814 92.3279 104.991 92.3279 102.742V94.0468C92.3279 91.7978 90.4964 89.9746 88.2373 89.9746Z" fill="#DDDDDD"/>
<path d="M108.614 89.9746H99.8796C97.6205 89.9746 95.7891 91.7978 95.7891 94.0468V102.742C95.7891 104.991 97.6205 106.814 99.8796 106.814H108.614C110.873 106.814 112.705 104.991 112.705 102.742V94.0468C112.705 91.7978 110.873 89.9746 108.614 89.9746Z" fill="#DDDDDD"/>
<path d="M129.099 89.9746H120.364C118.105 89.9746 116.273 91.7978 116.273 94.0468V102.742C116.273 104.991 118.105 106.814 120.364 106.814H129.099C131.358 106.814 133.189 104.991 133.189 102.742V94.0468C133.189 91.7978 131.358 89.9746 129.099 89.9746Z" fill="#DDDDDD"/>
<path d="M26.2099 110.228H17.4753C15.2162 110.228 13.3848 112.051 13.3848 114.3V122.996C13.3848 125.245 15.2162 127.068 17.4753 127.068H26.2099C28.4691 127.068 30.3005 125.245 30.3005 122.996V114.3C30.3005 112.051 28.4691 110.228 26.2099 110.228Z" fill="#DDDDDD"/>
<path d="M46.7021 110.228H37.9675C35.7084 110.228 33.877 112.051 33.877 114.3V122.996C33.877 125.245 35.7084 127.068 37.9675 127.068H46.7021C48.9613 127.068 50.7927 125.245 50.7927 122.996V114.3C50.7927 112.051 48.9613 110.228 46.7021 110.228Z" fill="#DDDDDD"/>
<path d="M67.7471 110.228H59.0124C56.7533 110.228 54.9219 112.051 54.9219 114.3V122.996C54.9219 125.245 56.7533 127.068 59.0124 127.068H67.7471C70.0062 127.068 71.8376 125.245 71.8376 122.996V114.3C71.8376 112.051 70.0062 110.228 67.7471 110.228Z" fill="#DDDDDD"/>
<path d="M88.2373 110.228H79.5027C77.2435 110.228 75.4121 112.051 75.4121 114.3V122.996C75.4121 125.245 77.2435 127.068 79.5027 127.068H88.2373C90.4964 127.068 92.3279 125.245 92.3279 122.996V114.3C92.3279 112.051 90.4964 110.228 88.2373 110.228Z" fill="#DDDDDD"/>
<path d="M108.614 110.228H99.8796C97.6205 110.228 95.7891 112.051 95.7891 114.3V122.996C95.7891 125.245 97.6205 127.068 99.8796 127.068H108.614C110.873 127.068 112.705 125.245 112.705 122.996V114.3C112.705 112.051 110.873 110.228 108.614 110.228Z" fill="#DDDDDD"/>
<path d="M129.099 110.228H120.364C118.105 110.228 116.273 112.051 116.273 114.3V122.996C116.273 125.245 118.105 127.068 120.364 127.068H129.099C131.358 127.068 133.189 125.245 133.189 122.996V114.3C133.189 112.051 131.358 110.228 129.099 110.228Z" fill="#DDDDDD"/>
<path d="M129.099 69.7212H120.364C118.105 69.7212 116.273 71.5444 116.273 73.7934V82.4888C116.273 84.7378 118.105 86.561 120.364 86.561H129.099C131.358 86.561 133.189 84.7378 133.189 82.4888V73.7934C133.189 71.5444 131.358 69.7212 129.099 69.7212Z" fill="url(#paint12_linear_3190_55946)"/>
<path d="M88.2373 89.9746H79.5027C77.2435 89.9746 75.4121 91.7978 75.4121 94.0468V102.742C75.4121 104.991 77.2435 106.814 79.5027 106.814H88.2373C90.4964 106.814 92.3279 104.991 92.3279 102.742V94.0468C92.3279 91.7978 90.4964 89.9746 88.2373 89.9746Z" fill="url(#paint13_linear_3190_55946)"/>
<path d="M46.7021 69.7212H37.9675C35.7084 69.7212 33.877 71.5444 33.877 73.7934V82.4888C33.877 84.7378 35.7084 86.561 37.9675 86.561H46.7021C48.9613 86.561 50.7927 84.7378 50.7927 82.4888V73.7934C50.7927 71.5444 48.9613 69.7212 46.7021 69.7212Z" fill="url(#paint14_linear_3190_55946)"/>
<path d="M67.7471 110.228H59.0124C56.7533 110.228 54.9219 112.051 54.9219 114.3V122.996C54.9219 125.245 56.7533 127.068 59.0124 127.068H67.7471C70.0062 127.068 71.8376 125.245 71.8376 122.996V114.3C71.8376 112.051 70.0062 110.228 67.7471 110.228Z" fill="url(#paint15_linear_3190_55946)"/>
<path d="M26.2099 89.9746H17.4753C15.2162 89.9746 13.3848 91.7978 13.3848 94.0468V102.742C13.3848 104.991 15.2162 106.814 17.4753 106.814H26.2099C28.4691 106.814 30.3005 104.991 30.3005 102.742V94.0468C30.3005 91.7978 28.4691 89.9746 26.2099 89.9746Z" fill="url(#paint16_linear_3190_55946)"/>
<path d="M138.667 89.8672H135.021V99.4935H138.667V89.8672Z" fill="#4D4C4C"/>
<path d="M132.012 89.5186V89.7402C132.012 90.6811 132.778 91.4438 133.723 91.4438H139.97C140.915 91.4438 141.682 90.6811 141.682 89.7402V89.5186C141.682 88.5777 140.915 87.815 139.97 87.815H133.723C132.778 87.815 132.012 88.5777 132.012 89.5186Z" fill="#4D4C4C"/>
<path d="M116.674 108.076L119.133 105.397L111.994 98.9039L109.535 101.583L116.674 108.076Z" fill="#4D4C4C"/>
<path d="M107.26 103.564L107.424 103.714C108.122 104.348 109.204 104.3 109.842 103.605L114.056 99.0141C114.694 98.3195 114.645 97.2419 113.947 96.6072L113.783 96.4577C113.085 95.823 112.003 95.8716 111.365 96.5662L107.151 101.157C106.513 101.852 106.562 102.929 107.26 103.564Z" fill="#4D4C4C"/>
<path d="M120.27 95.1917L105.808 109.589L105.156 108.94C103.382 107.174 102.385 104.778 102.385 102.281C102.385 99.7831 103.382 97.3877 105.156 95.6216L106.024 94.7573C107.854 92.9354 110.336 91.9119 112.924 91.9119C115.513 91.9119 117.995 92.9354 119.825 94.7573L120.275 95.2052L120.27 95.1917Z" fill="url(#paint17_linear_3190_55946)"/>
<path d="M136.841 151.096C152.462 151.096 165.125 138.49 165.125 122.939C165.125 107.388 152.462 94.7817 136.841 94.7817C121.22 94.7817 108.557 107.388 108.557 122.939C108.557 138.49 121.22 151.096 136.841 151.096Z" fill="url(#paint18_linear_3190_55946)"/>
<path d="M136.84 147.372C150.395 147.372 161.384 136.433 161.384 122.939C161.384 109.444 150.395 98.5054 136.84 98.5054C123.285 98.5054 112.297 109.444 112.297 122.939C112.297 136.433 123.285 147.372 136.84 147.372Z" fill="white"/>
<path d="M136.841 104.497C137.765 104.497 138.514 103.751 138.514 102.831C138.514 101.911 137.765 101.166 136.841 101.166C135.917 101.166 135.168 101.911 135.168 102.831C135.168 103.751 135.917 104.497 136.841 104.497Z" fill="#A0A09F"/>
<path d="M136.841 144.819C137.765 144.819 138.514 144.074 138.514 143.154C138.514 142.234 137.765 141.488 136.841 141.488C135.917 141.488 135.168 142.234 135.168 143.154C135.168 144.074 135.917 144.819 136.841 144.819Z" fill="#A0A09F"/>
<path d="M158.605 123.629C159.529 123.629 160.278 122.883 160.278 121.963C160.278 121.044 159.529 120.298 158.605 120.298C157.681 120.298 156.932 121.044 156.932 121.963C156.932 122.883 157.681 123.629 158.605 123.629Z" fill="#A0A09F"/>
<path d="M115.083 124.604C116.007 124.604 116.756 123.858 116.756 122.939C116.756 122.019 116.007 121.273 115.083 121.273C114.159 121.273 113.41 122.019 113.41 122.939C113.41 123.858 114.159 124.604 115.083 124.604Z" fill="#A0A09F"/>
<path d="M136.713 108.949H136.542C135.786 108.949 135.174 109.558 135.174 110.31V121.577C135.174 122.329 135.786 122.939 136.542 122.939H136.713C137.469 122.939 138.081 122.329 138.081 121.577V110.31C138.081 109.558 137.469 108.949 136.713 108.949Z" fill="#4D4C4C"/>
<path d="M147.516 122.609V122.438C147.516 121.686 146.903 121.077 146.148 121.077H134.83C134.075 121.077 133.463 121.686 133.463 122.438V122.609C133.463 123.361 134.075 123.971 134.83 123.971H146.148C146.903 123.971 147.516 123.361 147.516 122.609Z" fill="#4D4C4C"/>
<path d="M136.624 125.668C138.367 125.668 139.78 124.262 139.78 122.527C139.78 120.792 138.367 119.386 136.624 119.386C134.881 119.386 133.469 120.792 133.469 122.527C133.469 124.262 134.881 125.668 136.624 125.668Z" fill="url(#paint19_linear_3190_55946)"/>
</g>
<defs>
<linearGradient id="paint0_linear_3190_55946" x1="156.614" y1="91.3632" x2="171.003" y2="105.816" gradientUnits="userSpaceOnUse">
<stop stop-color="#2D516B"/>
<stop offset="1" stop-color="#173353"/>
</linearGradient>
<linearGradient id="paint1_linear_3190_55946" x1="5.08984" y1="93.3503" x2="141.491" y2="93.3503" gradientUnits="userSpaceOnUse">
<stop stop-color="#ED6D2E"/>
<stop offset="1" stop-color="#EE703B"/>
</linearGradient>
<linearGradient id="paint2_linear_3190_55946" x1="31.9688" y1="57.9039" x2="40.0099" y2="57.9039" gradientUnits="userSpaceOnUse">
<stop stop-color="#BF501F"/>
<stop offset="1" stop-color="#EE703B"/>
</linearGradient>
<linearGradient id="paint3_linear_3190_55946" x1="51.186" y1="57.9039" x2="59.2209" y2="57.9039" gradientUnits="userSpaceOnUse">
<stop stop-color="#BF501F"/>
<stop offset="1" stop-color="#EE703B"/>
</linearGradient>
<linearGradient id="paint4_linear_3190_55946" x1="70.3984" y1="57.9039" x2="78.4396" y2="57.9039" gradientUnits="userSpaceOnUse">
<stop stop-color="#BF501F"/>
<stop offset="1" stop-color="#EE703B"/>
</linearGradient>
<linearGradient id="paint5_linear_3190_55946" x1="89.8652" y1="57.9039" x2="97.9064" y2="57.9039" gradientUnits="userSpaceOnUse">
<stop stop-color="#BF501F"/>
<stop offset="1" stop-color="#EE703B"/>
</linearGradient>
<linearGradient id="paint6_linear_3190_55946" x1="109.084" y1="57.9039" x2="117.125" y2="57.9039" gradientUnits="userSpaceOnUse">
<stop stop-color="#BF501F"/>
<stop offset="1" stop-color="#EE703B"/>
</linearGradient>
<linearGradient id="paint7_linear_3190_55946" x1="35.9889" y1="38.9614" x2="35.9889" y2="60.0887" gradientUnits="userSpaceOnUse">
<stop stop-color="#2D516B"/>
<stop offset="1" stop-color="#173353"/>
</linearGradient>
<linearGradient id="paint8_linear_3190_55946" x1="55.2018" y1="38.9614" x2="55.2018" y2="60.0887" gradientUnits="userSpaceOnUse">
<stop stop-color="#2D516B"/>
<stop offset="1" stop-color="#173353"/>
</linearGradient>
<linearGradient id="paint9_linear_3190_55946" x1="74.4206" y1="38.9614" x2="74.4206" y2="60.0887" gradientUnits="userSpaceOnUse">
<stop stop-color="#2D516B"/>
<stop offset="1" stop-color="#173353"/>
</linearGradient>
<linearGradient id="paint10_linear_3190_55946" x1="93.8874" y1="38.9614" x2="93.8874" y2="60.0887" gradientUnits="userSpaceOnUse">
<stop stop-color="#2D516B"/>
<stop offset="1" stop-color="#173353"/>
</linearGradient>
<linearGradient id="paint11_linear_3190_55946" x1="113.104" y1="38.9614" x2="113.104" y2="60.0887" gradientUnits="userSpaceOnUse">
<stop stop-color="#2D516B"/>
<stop offset="1" stop-color="#173353"/>
</linearGradient>
<linearGradient id="paint12_linear_3190_55946" x1="116.273" y1="78.1379" x2="133.189" y2="78.1379" gradientUnits="userSpaceOnUse">
<stop stop-color="#ED6D2E"/>
<stop offset="1" stop-color="#EE703B"/>
</linearGradient>
<linearGradient id="paint13_linear_3190_55946" x1="75.4121" y1="98.3913" x2="92.3215" y2="98.3913" gradientUnits="userSpaceOnUse">
<stop stop-color="#ED6D2E"/>
<stop offset="1" stop-color="#EE703B"/>
</linearGradient>
<linearGradient id="paint14_linear_3190_55946" x1="33.877" y1="78.1379" x2="50.7927" y2="78.1379" gradientUnits="userSpaceOnUse">
<stop stop-color="#ED6D2E"/>
<stop offset="1" stop-color="#EE703B"/>
</linearGradient>
<linearGradient id="paint15_linear_3190_55946" x1="54.9219" y1="118.651" x2="71.8376" y2="118.651" gradientUnits="userSpaceOnUse">
<stop stop-color="#ED6D2E"/>
<stop offset="1" stop-color="#EE703B"/>
</linearGradient>
<linearGradient id="paint16_linear_3190_55946" x1="13.3848" y1="98.3913" x2="30.3005" y2="98.3913" gradientUnits="userSpaceOnUse">
<stop stop-color="#ED6D2E"/>
<stop offset="1" stop-color="#EE703B"/>
</linearGradient>
<linearGradient id="paint17_linear_3190_55946" x1="116.6" y1="91.5465" x2="102.211" y2="106" gradientUnits="userSpaceOnUse">
<stop stop-color="#2D516B"/>
<stop offset="1" stop-color="#173353"/>
</linearGradient>
<linearGradient id="paint18_linear_3190_55946" x1="108.557" y1="122.939" x2="165.125" y2="122.939" gradientUnits="userSpaceOnUse">
<stop stop-color="#2D516B"/>
<stop offset="1" stop-color="#173353"/>
</linearGradient>
<linearGradient id="paint19_linear_3190_55946" x1="133.469" y1="122.527" x2="139.78" y2="122.527" gradientUnits="userSpaceOnUse">
<stop stop-color="#ED6D2E"/>
<stop offset="1" stop-color="#EE703B"/>
</linearGradient>
<clipPath id="clip0_3190_55946">
<rect width="173" height="160" fill="white"/>
</clipPath>
</defs>
</svg>
