<svg width="170" height="158" viewBox="0 0 170 158" fill="none" xmlns="http://www.w3.org/2000/svg">
<g clip-path="url(#clip0_3190_55815)">
<path d="M144.17 106.098C144.17 106.098 169.531 92.8151 148.327 61.1513C127.122 29.4875 90.7827 60.8261 90.7827 60.8261C90.7827 60.8261 78.5175 72.5522 59.1007 65.8292C39.684 59.1062 16.4976 73.5654 29.1441 90.6824C41.7907 107.8 110.562 152.346 110.562 152.346L126.334 148.356L144.17 106.098Z" fill="url(#paint0_linear_3190_55815)"/>
<path d="M32.0583 87.3739C32.0583 87.3739 13.0479 62.1892 49.0933 40.6506C85.1388 19.112 106.575 67.4551 106.575 67.4551C106.575 67.4551 113.27 84.9224 135.775 87.3864C158.28 89.8505 174.577 115.167 153.904 126.236C133.231 137.306 43.7609 149.276 43.7609 149.276L29.9329 137.862L32.0583 87.3739Z" fill="url(#paint1_linear_3190_55815)"/>
<path d="M98.1973 150.208L106.605 151.039V160.702H98.1973V150.208Z" fill="#A0A09F"/>
<path d="M98.1973 150.208C98.1973 150.208 105.799 153.847 106.605 158.225V151.039L98.1973 150.208Z" fill="#4D4C4C"/>
<path d="M23.6816 139.501H67.6913C67.6913 139.501 77.5748 137.975 77.5748 147.981C77.5748 157.988 67.3475 210.521 67.3475 210.521H61.1462L64.1343 153.266L23.6816 139.501Z" fill="#173353"/>
<path d="M3.91422 139.5C3.91422 139.5 -0.0491562 155.967 14.6041 158.381H54.938L90.2708 210.52H96.4784L63.5586 146.83C63.5586 146.83 60.1079 142.002 49.0742 142.515L23.6811 139.5H3.91422Z" fill="#4D7CAB"/>
<path d="M161.574 127.462L168.413 140.664C168.413 140.664 163.212 152.421 130.28 153.172C97.3474 153.922 64.7652 150.095 64.7652 150.095C64.7652 150.095 38.0843 147.105 34.7148 149.519C34.7148 149.519 36.5465 128.512 40.2036 127.449C43.8606 126.386 147.996 126.004 147.996 126.004L161.574 127.462Z" fill="#DDDDDD"/>
<path d="M100.892 134.398C134.409 134.398 161.58 131.292 161.58 127.462C161.58 123.632 134.409 120.526 100.892 120.526C67.3742 120.526 40.2031 123.632 40.2031 127.462C40.2031 131.292 67.3742 134.398 100.892 134.398Z" fill="#BFBEBE"/>
<path d="M111.2 127.074L120.653 101.814C120.653 101.814 121.603 99.6567 119.102 99.6567H84.8259C84.2952 99.7027 83.7856 99.8859 83.3471 100.189C82.9087 100.491 82.5566 100.903 82.3253 101.383L73.9672 125.079H65.6904C65.6904 125.079 62.9335 124.992 61.4707 127.062L111.2 127.074Z" fill="#ED6D2E"/>
<path d="M24.2369 70.3696C24.2369 70.3696 16.7852 77.2865 17.7355 81.5079C18.6857 85.7294 15.1224 89.0127 15.1224 89.0127C14.1385 90.2668 13.4855 91.7482 13.2233 93.3207C12.9611 94.8932 13.0983 96.5065 13.622 98.0121C15.3224 103.509 22.9053 103.941 22.9053 103.941L46.8106 102.659C46.8106 102.659 54.3123 100.664 50.2301 91.7832C49.2551 89.61 49.035 87.1729 49.605 84.8601C50.5552 80.9201 53.6559 75.0601 48.1422 72.2145" fill="#173353"/>
<path d="M47.4424 105.185L40.7159 111.996C40.7159 111.996 43.3915 119.582 41.4911 122.947L35.8023 126.824L32.7892 139.501H3.91406L10.8969 103.716C10.8969 103.716 10.4343 92.5085 25.6626 98.2872L33.8644 96.7362L39.5969 96.6299C39.5969 96.6299 42.0412 96.9676 42.9289 98.3185L47.4424 105.185Z" fill="url(#paint2_linear_3190_55815)"/>
<path d="M47.4421 105.185L66.8214 122.771L59.8386 125.617L40.7156 111.996C40.7156 111.996 40.3718 104.666 47.4421 105.185Z" fill="#FBC376"/>
<path d="M14.6035 111.908C14.6035 111.908 30.8946 136.455 34.5579 132.071L35.8082 126.824L21.2112 113.197L14.6035 111.908Z" fill="#AB441A"/>
<path d="M71.8232 122.771C71.8232 122.771 73.0297 124.841 70.0103 125.185H63.8964C63.8964 125.185 60.702 125.104 59.9268 127.255H31.4018C31.4018 127.255 30.2828 127.687 28.5574 125.961L11.9225 111.908C11.9225 111.908 10.891 107.168 18.649 104.403L33.471 121.389L55.8759 123.628C55.8759 123.628 62.0835 116.567 71.8232 122.771Z" fill="#FBC376"/>
<path d="M30.921 86.8172C30.921 86.8172 40.0106 93.4839 42.9862 83.8028C45.9619 74.1217 44.9429 73.4588 44.9429 73.4588C44.9429 73.4588 38.3914 68.0553 34.4843 71.8515C30.5772 75.6477 30.921 76.1042 30.921 76.1042C30.921 76.1042 30.5022 76.6608 29.602 75.7602C28.7018 74.8597 26.9702 74.0779 26.1512 75.3725C25.3323 76.667 25.4198 79.5939 27.3578 81.4889C27.3578 81.4889 29.8583 91.6203 25.6636 98.262C25.6636 98.262 32.4026 103.303 33.8654 96.711L34.253 86.6233L30.921 86.8172Z" fill="#FBC376"/>
<path d="M34.1832 88.506C34.1832 88.506 31.3013 87.3991 30.5449 86.2358C30.5449 86.2358 31.8827 91.0201 34.102 90.6136L34.1832 88.506Z" fill="#DDA058"/>
<path d="M47.4424 71.2949C47.4424 71.2949 44.0792 78.4182 30.5637 76.2981L27.3755 81.5139L21.5742 79.1186L23.1308 72.1017C23.722 70.0133 24.8013 68.0955 26.2796 66.5068C27.7579 64.9181 29.5928 63.7039 31.6327 62.9647C31.6327 62.9647 39.2219 60.3755 45.1357 66.2417C51.0495 72.108 50.5244 74.6596 50.5244 74.6596C50.5244 74.6596 50.3056 77.38 47.9363 76.4732C45.567 75.5664 44.3167 72.6771 44.3167 72.6771" fill="url(#paint3_linear_3190_55815)"/>
<path opacity="0.35" d="M119.128 99.6569C119.128 99.6569 121.541 99.513 120.678 101.814L111.201 127.074H108.775L119.115 99.438" fill="#C45522"/>
<path d="M73.9681 125.079H111.945L111.201 127.062L62.6094 127.243C62.6094 127.243 63.0095 125.317 66.5727 125.173L73.9681 125.079Z" fill="#AB441A"/>
<path d="M129.711 115.648C132.864 115.648 135.419 115.208 135.419 114.666C135.419 114.124 132.864 113.684 129.711 113.684C126.559 113.684 124.004 114.124 124.004 114.666C124.004 115.208 126.559 115.648 129.711 115.648Z" fill="#4F7FB0"/>
<path d="M134.755 124.091C136.554 124.091 138.012 122.632 138.012 120.833C138.012 119.033 136.554 117.574 134.755 117.574C132.956 117.574 131.498 119.033 131.498 120.833C131.498 122.632 132.956 124.091 134.755 124.091Z" stroke="#173353" stroke-width="3" stroke-miterlimit="10"/>
<path opacity="0.3" d="M132.843 115.492C132.843 115.492 135.419 114.278 134.756 111.696C134.094 109.113 135.419 106.348 135.419 106.348C135.419 106.348 135.35 101.22 127.811 103.847C120.272 106.474 125.223 112.571 125.223 112.571C125.485 112.976 125.612 113.453 125.587 113.935C125.563 114.416 125.387 114.878 125.085 115.254L126.192 115.779L132.843 115.492Z" fill="url(#paint4_linear_3190_55815)"/>
<path d="M135.419 114.541C131.761 116.038 127.662 116.038 124.004 114.541V126.274C124.004 126.274 130.455 128.731 135.419 126.274V114.322" fill="#173353"/>
<path opacity="0.57" d="M90.9473 74.2817L101 91.0121H79.2227L87.3058 74.2817H90.9473Z" fill="url(#paint5_linear_3190_55815)"/>
<path d="M89.5339 77.914C90.2591 77.914 90.847 77.3259 90.847 76.6003C90.847 75.8748 90.2591 75.2866 89.5339 75.2866C88.8086 75.2866 88.2207 75.8748 88.2207 76.6003C88.2207 77.3259 88.8086 77.914 89.5339 77.914Z" fill="#EBBD2F"/>
<path d="M94.1738 76.4844H84.8934V72.4494C84.8934 71.2095 85.3858 70.0203 86.2622 69.1435C87.1386 68.2668 88.3273 67.7742 89.5667 67.7742C90.7886 67.7742 91.9604 68.2598 92.8244 69.1241C93.6884 69.9885 94.1738 71.1608 94.1738 72.3832V76.4844Z" fill="#2C5277"/>
<path d="M89.2763 66.7744H89.7949V45.3909H89.2763V66.7744Z" fill="#173353"/>
<path d="M91.123 68.0723H87.945C87.945 67.7297 88.081 67.4012 88.3231 67.1589C88.5653 66.9167 88.8937 66.7806 89.2361 66.7806H89.832C90.1744 66.7806 90.5028 66.9167 90.7449 67.1589C90.987 67.4012 91.123 67.7297 91.123 68.0723Z" fill="#173353"/>
<path d="M91.123 68.4805C91.8112 68.7551 92.4153 69.2055 92.8751 69.7866C93.335 70.3677 93.6345 71.0593 93.7438 71.7923C93.2549 70.4318 92.3345 69.2687 91.123 68.4805Z" fill="#456F93"/>
<path opacity="0.57" d="M71.7246 64.5723L81.7775 81.3026H60L68.0831 64.5723H71.7246Z" fill="url(#paint6_linear_3190_55815)"/>
<path d="M70.4675 68.2046C71.1927 68.2046 71.7806 67.6164 71.7806 66.8908C71.7806 66.1653 71.1927 65.5771 70.4675 65.5771C69.7422 65.5771 69.1543 66.1653 69.1543 66.8908C69.1543 67.6164 69.7422 68.2046 70.4675 68.2046Z" fill="#EBBD2F"/>
<path d="M75.1172 66.7915H65.8368V62.7566C65.8368 61.5166 66.3292 60.3275 67.2056 59.4507C68.082 58.5739 69.2707 58.0813 70.5101 58.0813C71.732 58.0813 72.9038 58.5669 73.7678 59.4313C74.6318 60.2956 75.1172 61.4679 75.1172 62.6903V66.7915Z" fill="#2C5277"/>
<path d="M70.1122 57.3833H70.6309V35.9998H70.1122V57.3833Z" fill="#173353"/>
<path d="M72.0566 58.3628H68.8786C68.8785 58.0231 69.0123 57.697 69.2509 57.4553C69.4894 57.2135 69.8136 57.0755 70.1531 57.0712H70.749C71.0914 57.0712 71.4198 57.2073 71.6619 57.4495C71.9041 57.6917 72.0401 58.0202 72.0401 58.3628H72.0566Z" fill="#173353"/>
<path d="M72.0566 58.771C72.7452 59.0458 73.3499 59.4961 73.8106 60.0771C74.2713 60.6581 74.5721 61.3496 74.683 62.0828C74.1901 60.7229 73.2683 59.5604 72.0566 58.771Z" fill="#456F93"/>
</g>
<defs>
<linearGradient id="paint0_linear_3190_55815" x1="25.5371" y1="99.6569" x2="156.785" y2="99.6569" gradientUnits="userSpaceOnUse">
<stop offset="0.02" stop-color="#4D7CAB"/>
<stop offset="1" stop-color="#6599C4"/>
</linearGradient>
<linearGradient id="paint1_linear_3190_55815" x1="114.064" y1="57.5175" x2="56.7408" y2="156.772" gradientUnits="userSpaceOnUse">
<stop offset="0.02" stop-color="#4D7CAB"/>
<stop offset="1" stop-color="#6599C4"/>
</linearGradient>
<linearGradient id="paint2_linear_3190_55815" x1="3.91406" y1="118.068" x2="47.4424" y2="118.068" gradientUnits="userSpaceOnUse">
<stop stop-color="#ED6D2E"/>
<stop offset="1" stop-color="#EE703B"/>
</linearGradient>
<linearGradient id="paint3_linear_3190_55815" x1="44.1354" y1="65.2661" x2="25.9177" y2="83.4764" gradientUnits="userSpaceOnUse">
<stop stop-color="#2D516B"/>
<stop offset="1" stop-color="#173353"/>
</linearGradient>
<linearGradient id="paint4_linear_3190_55815" x1="129.524" y1="103.096" x2="129.524" y2="115.767" gradientUnits="userSpaceOnUse">
<stop stop-color="white" stop-opacity="0"/>
<stop offset="0.38" stop-color="white" stop-opacity="0.39"/>
<stop offset="0.96" stop-color="white"/>
</linearGradient>
<linearGradient id="paint5_linear_3190_55815" x1="90.1142" y1="99.7002" x2="90.1142" y2="75.1318" gradientUnits="userSpaceOnUse">
<stop offset="0.4" stop-color="white" stop-opacity="0"/>
<stop offset="0.64" stop-color="#F7E3A7" stop-opacity="0.42"/>
<stop offset="0.96" stop-color="#EBBD2F"/>
</linearGradient>
<linearGradient id="paint6_linear_3190_55815" x1="70.8915" y1="89.9907" x2="70.8915" y2="65.4223" gradientUnits="userSpaceOnUse">
<stop offset="0.4" stop-color="white" stop-opacity="0"/>
<stop offset="0.64" stop-color="#F7E3A7" stop-opacity="0.42"/>
<stop offset="0.96" stop-color="#EBBD2F"/>
</linearGradient>
<clipPath id="clip0_3190_55815">
<rect width="170" height="158" fill="white"/>
</clipPath>
</defs>
</svg>
