<svg width="1441" height="774" viewBox="0 0 1441 774" fill="none" xmlns="http://www.w3.org/2000/svg">
<g clip-path="url(#clip0_3904_95353)">
<path opacity="0.43" d="M326.001 14.0284C326.001 14.0284 539.641 -3.39946 620.241 122.709C700.841 248.817 774.831 255.159 774.831 255.159C774.831 255.159 880.191 267.82 906.391 304.147C932.591 340.474 968.861 353.374 989.011 354.244C1009.16 355.115 1020.24 378.428 1000.09 390.509C979.941 402.591 922.511 403.43 899.341 428.484C899.341 428.484 862.061 471.67 791.531 482.042C721.001 492.414 672.641 499.314 622.261 549.391C571.881 599.467 525.531 623.672 465.081 640.954C404.631 658.237 326.081 706.594 326.081 706.594H13.6113V14.0284H326.001Z" fill="#EAEAEA"/>
<path d="M296.131 16.1628C296.131 16.1628 509.741 -3.73106 590.341 139.888C670.941 283.507 744.931 290.74 744.931 290.74C744.931 290.74 850.291 305.183 876.491 346.484C902.691 387.784 939.001 402.58 959.111 403.534C979.221 404.487 990.351 431.084 970.191 444.855C950.031 458.625 892.611 459.568 869.441 488.145C869.441 488.145 832.161 537.33 761.631 549.132C691.101 560.933 642.741 568.818 592.361 625.868C541.981 682.918 495.631 710.469 435.181 730.145C374.731 749.821 197.5 752.5 197.5 752.5H-3L-16.2891 16.1628H296.131Z" fill="url(#paint0_linear_3904_95353)"/>
<path d="M1425.81 463.23C1425.81 463.23 1302.7 504.68 1217.27 602.67L1355.46 563.72L1359.23 547.72L1367.08 553.37L1397.23 524.16L1386.23 514.43L1406.33 512.54C1406.33 512.54 1427.69 480.81 1425.81 463.23Z" fill="url(#paint1_linear_3904_95353)"/>
<path d="M1428.5 463.84C1428.5 463.84 1294.93 521.6 1232.76 586.56C1170.59 651.52 1285.23 490.56 1344.68 473.5L1355.86 483.23L1362.86 469.02C1362.86 469.02 1404.32 457.38 1428.5 463.84Z" fill="url(#paint2_linear_3904_95353)"/>
<path d="M1356.51 394.54C1356.51 394.54 1277.7 461 1243.15 558.13L1333.82 489.19L1331.94 476.27L1339.38 478.16L1353.14 447.83L1342.14 443.83L1356.43 436.59C1356.43 436.59 1363 407 1356.51 394.54Z" fill="url(#paint3_linear_3904_95353)"/>
<path d="M1359 393C1359 393 1277.2 474.49 1250.21 540.52C1223.22 606.55 1261.03 454.44 1299.93 424.52L1311 428.4L1312 415.88C1312 415.88 1339.24 395.22 1359 393Z" fill="url(#paint4_linear_3904_95353)"/>
<path d="M664.919 397C664.919 397 762.629 430 830.429 507.71L720.749 476.81L717.749 464.09L711.519 468.58L687.599 445.4L696.329 437.67L680.329 436.18C680.329 436.18 663.429 411 664.919 397Z" fill="url(#paint5_linear_3904_95353)"/>
<path d="M662.789 397.53C662.789 397.53 768.789 443.37 818.139 494.93C867.489 546.49 776.499 418.77 729.309 405.2L720.439 412.92L714.909 401.64C714.909 401.64 681.999 392.41 662.789 397.53Z" fill="url(#paint6_linear_3904_95353)"/>
<path d="M719.919 342.53C719.919 342.53 782.469 395.24 809.919 472.37L737.919 417.65L739.409 407.4L733.509 408.9L722.599 384.83L731.279 381.66L719.939 375.92C719.939 375.92 714.759 352.4 719.919 342.53Z" fill="url(#paint7_linear_3904_95353)"/>
<path d="M718 341.27C718 341.27 782.92 405.94 804.34 458.35C825.76 510.76 795.76 390.03 764.88 366.29L756.08 369.41L755.28 359.47C755.28 359.47 733.63 343.07 718 341.27Z" fill="url(#paint8_linear_3904_95353)"/>
<path d="M1028 652C1097.59 652 1154 644.836 1154 636C1154 627.163 1097.59 620 1028 620C958.412 620 902 627.163 902 636C902 644.836 958.412 652 1028 652Z" fill="#DDDDDD"/>
<path d="M814.599 682.44C865.354 682.44 906.499 680.542 906.499 678.2C906.499 675.858 865.354 673.96 814.599 673.96C763.844 673.96 722.699 675.858 722.699 678.2C722.699 680.542 763.844 682.44 814.599 682.44Z" fill="#DDDDDD"/>
<path d="M1332.48 697.398C1368.84 690.006 1397.75 681.228 1397.06 677.791C1396.36 674.355 1366.31 677.561 1329.95 684.953C1293.58 692.345 1264.67 701.123 1265.37 704.56C1266.07 707.996 1296.11 704.79 1332.48 697.398Z" fill="#DDDDDD"/>
<path d="M1272.47 704.627C1274.54 701.794 1256.71 685.259 1232.65 667.694C1208.59 650.129 1187.41 638.186 1185.34 641.019C1183.27 643.851 1201.1 660.387 1225.16 677.951C1249.23 695.516 1270.41 707.459 1272.47 704.627Z" fill="#DDDDDD"/>
<path opacity="0.26" d="M1500.65 98.31H1222.11C1222.11 98.31 1220.41 36.53 1282.4 57.77C1282.4 57.77 1324.86 -29.1 1398.75 45.22C1398.75 45.22 1442.06 31.71 1459.89 72.22C1459.89 72.25 1496.41 60.66 1500.65 98.31Z" fill="url(#paint9_linear_3904_95353)"/>
<path opacity="0.26" d="M1594.74 298.67H1316.19C1316.19 298.67 1314.5 236.9 1376.49 258.13C1376.49 258.13 1418.95 171.26 1492.83 245.58C1492.83 245.58 1536.14 232.07 1553.98 272.58C1554 272.61 1590.49 261 1594.74 298.67Z" fill="url(#paint10_linear_3904_95353)"/>
<path opacity="0.26" d="M972.76 153.07H759.34C759.34 153.07 758 105.74 805.54 122C805.54 122 838.07 55.44 894.68 112.38C894.68 112.38 927.87 102.03 941.53 133.09C941.53 133.1 969.51 124.23 972.76 153.07Z" fill="url(#paint11_linear_3904_95353)"/>
<path opacity="0.33" d="M1010.76 662.59C1181.82 662.59 1320.5 523.915 1320.5 352.85C1320.5 181.785 1181.82 43.11 1010.76 43.11C839.695 43.11 701.02 181.785 701.02 352.85C701.02 523.915 839.695 662.59 1010.76 662.59Z" fill="url(#paint12_radial_3904_95353)" fill-opacity="0.5"/>
<path d="M1199.3 622.68L1288.42 606.83L1388.6 647.12V650.08L1263.29 673.49L1199.3 622.68Z" fill="url(#paint13_linear_3904_95353)"/>
<path d="M1199.29 622.68L1265.73 669.56L1388.6 647.12V680.23L1267.73 704.89L1189.73 646.45C1189.73 646.45 1182.63 630.68 1199.29 622.68Z" fill="url(#paint14_linear_3904_95353)"/>
<path d="M1388.1 650.682V674.862L1265.13 700.186C1260.37 693.737 1259.99 687.18 1260.82 682.198C1261.24 679.672 1261.97 677.553 1262.59 676.067C1262.9 675.324 1263.18 674.741 1263.39 674.345C1263.48 674.174 1263.55 674.038 1263.61 673.939L1388.1 650.682Z" fill="white" stroke="#D9D9D9"/>
<path d="M1358.26 583.2L1291.83 630.09L1169 607.64V640.75L1289.87 665.41L1367.87 606.98C1367.87 606.98 1374.93 591.2 1358.26 583.2Z" fill="url(#paint15_linear_3904_95353)"/>
<path d="M1293.95 634.449C1294.01 634.548 1294.08 634.684 1294.17 634.855C1294.38 635.251 1294.66 635.835 1294.97 636.578C1295.6 638.065 1296.32 640.185 1296.74 642.713C1297.57 647.697 1297.19 654.257 1292.43 660.706L1169.5 635.382V611.212L1293.95 634.449Z" fill="white" stroke="#D9D9D9"/>
<path d="M1313.47 321.55L1383.09 255.38C1383.09 255.38 1396.86 232.04 1374.09 233.38C1351.32 234.72 1313.47 321.55 1313.47 321.55Z" fill="url(#paint16_linear_3904_95353)"/>
<path d="M1278.64 382.7L1342 382.84C1342 382.84 1357.45 378.09 1346.31 368.52C1335.17 358.95 1278.64 382.7 1278.64 382.7Z" fill="url(#paint17_linear_3904_95353)"/>
<path d="M1269.47 407.68L1245.22 349.15C1245.22 349.15 1243.74 333.06 1256.83 339.72C1269.92 346.38 1269.47 407.68 1269.47 407.68Z" fill="url(#paint18_linear_3904_95353)"/>
<path d="M1298.89 352.85L1377.05 329.57C1377.05 329.57 1394.34 317.99 1377.05 310.32C1359.76 302.65 1298.89 352.85 1298.89 352.85Z" fill="url(#paint19_linear_3904_95353)"/>
<path d="M1292.45 361.8L1268.29 283.91C1268.29 283.91 1268.29 263.1 1284.29 273.19C1300.29 283.28 1292.45 361.8 1292.45 361.8Z" fill="url(#paint20_linear_3904_95353)"/>
<path d="M1314.71 323C1309.87 333.71 1304.71 344.16 1299.41 354.56C1294.11 364.96 1288.72 375.27 1283.27 385.56L1279.15 393.26L1275 401C1272.26 406.13 1269.42 411.22 1266.62 416.33C1260.92 426.5 1255.29 436.71 1249.07 446.69C1252.67 435.53 1256.88 424.577 1261.69 413.88C1264.02 408.5 1266.57 403.24 1269.09 397.96C1271.61 392.68 1274.33 387.49 1277.09 382.33C1282.58 372.003 1288.42 361.87 1294.63 351.93C1300.78 341.924 1307.49 332.266 1314.71 323V323Z" fill="url(#paint21_linear_3904_95353)"/>
<path d="M1068.51 526.33H986.459V608.38H1068.51V526.33Z" fill="url(#paint22_linear_3904_95353)"/>
<path d="M986.328 605.42H1068.77L1121.24 631.06H937.408L986.328 605.42Z" fill="url(#paint23_linear_3904_95353)"/>
<path d="M1121.24 631.06H937.408V635.2H1121.24V631.06Z" fill="url(#paint24_linear_3904_95353)"/>
<path d="M1256.59 267.3H788.908C784.49 267.3 780.908 270.882 780.908 275.3V572.76C780.908 577.178 784.49 580.76 788.908 580.76H1256.59C1261.01 580.76 1264.59 577.178 1264.59 572.76V275.3C1264.59 270.882 1261.01 267.3 1256.59 267.3Z" fill="url(#paint25_linear_3904_95353)"/>
<path d="M1250.79 280.42H791.529V567.35H1250.79V280.42Z" fill="white"/>
<path d="M1231.63 374.54H812.409C810.1 374.54 808.229 376.411 808.229 378.72V546.45C808.229 548.759 810.1 550.63 812.409 550.63H1231.63C1233.94 550.63 1235.81 548.759 1235.81 546.45V378.72C1235.81 376.411 1233.94 374.54 1231.63 374.54Z" fill="url(#paint26_linear_3904_95353)"/>
<path d="M1027.48 504.7C1051.52 504.7 1071.01 485.211 1071.01 461.17C1071.01 437.129 1051.52 417.64 1027.48 417.64C1003.44 417.64 983.949 437.129 983.949 461.17C983.949 485.211 1003.44 504.7 1027.48 504.7Z" fill="white"/>
<path d="M1019.51 447.84V474.5L1044.13 461.17L1019.51 447.84Z" fill="url(#paint27_linear_3904_95353)"/>
<path d="M837.139 356.82C853.105 356.82 866.049 343.877 866.049 327.91C866.049 311.943 853.105 299 837.139 299C821.172 299 808.229 311.943 808.229 327.91C808.229 343.877 821.172 356.82 837.139 356.82Z" fill="url(#paint28_linear_3904_95353)"/>
<path d="M1004.3 298.99H885.3C881.732 298.99 878.84 301.882 878.84 305.45V311.71C878.84 315.278 881.732 318.17 885.3 318.17H1004.3C1007.87 318.17 1010.76 315.278 1010.76 311.71V305.45C1010.76 301.882 1007.87 298.99 1004.3 298.99Z" fill="url(#paint29_linear_3904_95353)"/>
<path d="M1235.8 327.91H881.738V335.03H1235.8V327.91Z" fill="url(#paint30_linear_3904_95353)"/>
<path d="M1235.8 341.27H881.738V348.39H1235.8V341.27Z" fill="url(#paint31_linear_3904_95353)"/>
<path opacity="0.21" d="M901.64 591.667C925.126 571.869 928.898 537.707 910.064 515.365C891.23 493.022 856.923 490.96 833.436 510.759C809.95 530.557 806.178 564.719 825.012 587.062C843.846 609.404 878.153 611.466 901.64 591.667Z" fill="white"/>
<g opacity="0.53">
<path opacity="0.21" d="M901.296 591.311C924.783 571.513 928.554 537.351 909.72 515.008C890.887 492.666 856.579 490.604 833.093 510.403C809.606 530.201 805.834 564.363 824.668 586.705C843.502 609.048 877.81 611.11 901.296 591.311Z" fill="white"/>
<path opacity="0.31" d="M877.234 498L827 517.676L866.353 618.144L916.587 598.468L877.234 498Z" fill="white"/>
</g>
<path d="M732.388 675.637L828.818 594.35C830.735 592.734 830.979 589.87 829.363 587.953L829.176 587.731C827.56 585.814 824.696 585.57 822.779 587.186L726.349 668.473C724.432 670.089 724.188 672.953 725.804 674.87L725.991 675.092C727.607 677.009 730.471 677.253 732.388 675.637Z" fill="url(#paint32_linear_3904_95353)"/>
<path d="M865.52 602.87C894.106 602.87 917.28 579.696 917.28 551.11C917.28 522.524 894.106 499.35 865.52 499.35C836.934 499.35 813.76 522.524 813.76 551.11C813.76 579.696 836.934 602.87 865.52 602.87Z" stroke="url(#paint33_linear_3904_95353)" stroke-width="12" stroke-miterlimit="10" stroke-linecap="round"/>
<path d="M1358.27 583.2L1269.14 567.35L1168.95 607.64V610.61L1294.27 634.01L1358.27 583.2Z" fill="#EE753F"/>
</g>
<defs>
<linearGradient id="paint0_linear_3904_95353" x1="-16.2891" y1="410.061" x2="980.861" y2="410.061" gradientUnits="userSpaceOnUse">
<stop stop-color="#ED6D2E"/>
<stop offset="0.16" stop-color="#ED6F32"/>
<stop offset="0.3" stop-color="#EE773C"/>
<stop offset="0.43" stop-color="#F0844F"/>
<stop offset="0.56" stop-color="#F29669"/>
<stop offset="0.69" stop-color="#F5AD8A"/>
<stop offset="0.81" stop-color="#F8CAB3"/>
<stop offset="0.93" stop-color="#FCEBE2"/>
<stop offset="1" stop-color="white"/>
</linearGradient>
<linearGradient id="paint1_linear_3904_95353" x1="1217.27" y1="532.95" x2="1425.93" y2="532.95" gradientUnits="userSpaceOnUse">
<stop offset="0.11" stop-color="#5C812D"/>
<stop offset="0.55" stop-color="#5E8430"/>
<stop offset="0.89" stop-color="#628C3A"/>
<stop offset="1" stop-color="#65903F"/>
</linearGradient>
<linearGradient id="paint2_linear_3904_95353" x1="1214.82" y1="531.91" x2="1428.5" y2="531.91" gradientUnits="userSpaceOnUse">
<stop offset="0.11" stop-color="#9FAD76"/>
<stop offset="0.42" stop-color="#9DAA74"/>
<stop offset="0.66" stop-color="#96A06D"/>
<stop offset="0.88" stop-color="#8B9061"/>
<stop offset="1" stop-color="#828357"/>
</linearGradient>
<linearGradient id="paint3_linear_3904_95353" x1="1243.15" y1="476.34" x2="1359.4" y2="476.34" gradientUnits="userSpaceOnUse">
<stop offset="0.11" stop-color="#5C812D"/>
<stop offset="0.55" stop-color="#5E8430"/>
<stop offset="0.89" stop-color="#628C3A"/>
<stop offset="1" stop-color="#65903F"/>
</linearGradient>
<linearGradient id="paint4_linear_3904_95353" x1="1241.06" y1="474.94" x2="1358.97" y2="474.94" gradientUnits="userSpaceOnUse">
<stop offset="0.11" stop-color="#9FAD76"/>
<stop offset="0.42" stop-color="#9DAA74"/>
<stop offset="0.66" stop-color="#96A06D"/>
<stop offset="0.88" stop-color="#8B9061"/>
<stop offset="1" stop-color="#828357"/>
</linearGradient>
<linearGradient id="paint5_linear_3904_95353" x1="830.429" y1="452.38" x2="664.829" y2="452.38" gradientUnits="userSpaceOnUse">
<stop offset="0.11" stop-color="#5C812D"/>
<stop offset="0.55" stop-color="#5E8430"/>
<stop offset="0.89" stop-color="#628C3A"/>
<stop offset="1" stop-color="#65903F"/>
</linearGradient>
<linearGradient id="paint6_linear_3904_95353" x1="832.379" y1="451.55" x2="662.789" y2="451.55" gradientUnits="userSpaceOnUse">
<stop offset="0.11" stop-color="#9FAD76"/>
<stop offset="0.42" stop-color="#9DAA74"/>
<stop offset="0.66" stop-color="#96A06D"/>
<stop offset="0.88" stop-color="#8B9061"/>
<stop offset="1" stop-color="#828357"/>
</linearGradient>
<linearGradient id="paint7_linear_3904_95353" x1="809.889" y1="407.45" x2="717.629" y2="407.45" gradientUnits="userSpaceOnUse">
<stop offset="0.11" stop-color="#5C812D"/>
<stop offset="0.55" stop-color="#5E8430"/>
<stop offset="0.89" stop-color="#628C3A"/>
<stop offset="1" stop-color="#65903F"/>
</linearGradient>
<linearGradient id="paint8_linear_3904_95353" x1="811.55" y1="406.34" x2="717.97" y2="406.34" gradientUnits="userSpaceOnUse">
<stop offset="0.11" stop-color="#9FAD76"/>
<stop offset="0.42" stop-color="#9DAA74"/>
<stop offset="0.66" stop-color="#96A06D"/>
<stop offset="0.88" stop-color="#8B9061"/>
<stop offset="1" stop-color="#828357"/>
</linearGradient>
<linearGradient id="paint9_linear_3904_95353" x1="1399.74" y1="23.72" x2="1323.04" y2="156.58" gradientUnits="userSpaceOnUse">
<stop stop-color="#858584" stop-opacity="0.6"/>
<stop offset="0.97" stop-color="white"/>
</linearGradient>
<linearGradient id="paint10_linear_3904_95353" x1="1493.83" y1="224.09" x2="1417.12" y2="356.94" gradientUnits="userSpaceOnUse">
<stop stop-color="#858584" stop-opacity="0.6"/>
<stop offset="0.97" stop-color="white"/>
</linearGradient>
<linearGradient id="paint11_linear_3904_95353" x1="895.45" y1="95.92" x2="836.67" y2="197.72" gradientUnits="userSpaceOnUse">
<stop stop-color="#858584" stop-opacity="0.6"/>
<stop offset="0.97" stop-color="white"/>
</linearGradient>
<radialGradient id="paint12_radial_3904_95353" cx="0" cy="0" r="1" gradientUnits="userSpaceOnUse" gradientTransform="translate(1010.76 352.85) scale(309.74 309.74)">
<stop offset="0.11" stop-color="#EBBD2F"/>
<stop offset="0.27" stop-color="#EBBE32" stop-opacity="0.99"/>
<stop offset="0.39" stop-color="#ECC13A" stop-opacity="0.95"/>
<stop offset="0.5" stop-color="#EDC549" stop-opacity="0.88"/>
<stop offset="0.6" stop-color="#EFCC5D" stop-opacity="0.78"/>
<stop offset="0.7" stop-color="#F2D478" stop-opacity="0.65"/>
<stop offset="0.79" stop-color="#F5DE98" stop-opacity="0.5"/>
<stop offset="0.88" stop-color="#F9EBBF" stop-opacity="0.31"/>
<stop offset="0.96" stop-color="#FDF8EA" stop-opacity="0.1"/>
<stop offset="1" stop-color="white" stop-opacity="0"/>
</radialGradient>
<linearGradient id="paint13_linear_3904_95353" x1="1388.61" y1="640.16" x2="1199.3" y2="640.16" gradientUnits="userSpaceOnUse">
<stop stop-color="#2D516B"/>
<stop offset="1" stop-color="#173353"/>
</linearGradient>
<linearGradient id="paint14_linear_3904_95353" x1="1188.23" y1="663.79" x2="1388.6" y2="663.79" gradientUnits="userSpaceOnUse">
<stop stop-color="#2D516B"/>
<stop offset="1" stop-color="#173353"/>
</linearGradient>
<linearGradient id="paint15_linear_3904_95353" x1="1369.33" y1="624.31" x2="1168.96" y2="624.31" gradientUnits="userSpaceOnUse">
<stop stop-color="#ED6D2E"/>
<stop offset="1" stop-color="#EE703B"/>
</linearGradient>
<linearGradient id="paint16_linear_3904_95353" x1="1377.87" y1="283.262" x2="1322.85" y2="271.472" gradientUnits="userSpaceOnUse">
<stop offset="0.11" stop-color="#5C812D"/>
<stop offset="0.55" stop-color="#5E8430"/>
<stop offset="0.89" stop-color="#628C3A"/>
<stop offset="1" stop-color="#65903F"/>
</linearGradient>
<linearGradient id="paint17_linear_3904_95353" x1="1327.24" y1="391.784" x2="1306.86" y2="361.572" gradientUnits="userSpaceOnUse">
<stop offset="0.11" stop-color="#5C812D"/>
<stop offset="0.55" stop-color="#5E8430"/>
<stop offset="0.89" stop-color="#628C3A"/>
<stop offset="1" stop-color="#65903F"/>
</linearGradient>
<linearGradient id="paint18_linear_3904_95353" x1="1240.43" y1="368.58" x2="1276.07" y2="375.973" gradientUnits="userSpaceOnUse">
<stop offset="0.11" stop-color="#5C812D"/>
<stop offset="0.55" stop-color="#5E8430"/>
<stop offset="0.89" stop-color="#628C3A"/>
<stop offset="1" stop-color="#65903F"/>
</linearGradient>
<linearGradient id="paint19_linear_3904_95353" x1="1355.95" y1="351.087" x2="1319.42" y2="321.578" gradientUnits="userSpaceOnUse">
<stop offset="0.11" stop-color="#5C812D"/>
<stop offset="0.55" stop-color="#5E8430"/>
<stop offset="0.89" stop-color="#628C3A"/>
<stop offset="1" stop-color="#65903F"/>
</linearGradient>
<linearGradient id="paint20_linear_3904_95353" x1="1259.75" y1="308.468" x2="1304.56" y2="322.166" gradientUnits="userSpaceOnUse">
<stop offset="0.11" stop-color="#5C812D"/>
<stop offset="0.55" stop-color="#5E8430"/>
<stop offset="0.89" stop-color="#628C3A"/>
<stop offset="1" stop-color="#65903F"/>
</linearGradient>
<linearGradient id="paint21_linear_3904_95353" x1="1294.03" y1="389.31" x2="1269.69" y2="380.37" gradientUnits="userSpaceOnUse">
<stop offset="0.11" stop-color="#9FAD76"/>
<stop offset="0.42" stop-color="#9DAA74"/>
<stop offset="0.66" stop-color="#96A06D"/>
<stop offset="0.88" stop-color="#8B9061"/>
<stop offset="1" stop-color="#828357"/>
</linearGradient>
<linearGradient id="paint22_linear_3904_95353" x1="986.459" y1="567.35" x2="1068.51" y2="567.35" gradientUnits="userSpaceOnUse">
<stop stop-color="#213C50"/>
<stop offset="1" stop-color="#142D4B"/>
</linearGradient>
<linearGradient id="paint23_linear_3904_95353" x1="937.408" y1="618.24" x2="1121.24" y2="618.24" gradientUnits="userSpaceOnUse">
<stop stop-color="#2D516B"/>
<stop offset="1" stop-color="#173353"/>
</linearGradient>
<linearGradient id="paint24_linear_3904_95353" x1="937.408" y1="633.13" x2="1121.24" y2="633.13" gradientUnits="userSpaceOnUse">
<stop stop-color="#213C50"/>
<stop offset="1" stop-color="#142D4B"/>
</linearGradient>
<linearGradient id="paint25_linear_3904_95353" x1="780.908" y1="424.03" x2="1264.59" y2="424.03" gradientUnits="userSpaceOnUse">
<stop stop-color="#2D516B"/>
<stop offset="1" stop-color="#173353"/>
</linearGradient>
<linearGradient id="paint26_linear_3904_95353" x1="808.229" y1="462.59" x2="1235.81" y2="462.59" gradientUnits="userSpaceOnUse">
<stop stop-color="#ED6D2E"/>
<stop offset="1" stop-color="#EE703B"/>
</linearGradient>
<linearGradient id="paint27_linear_3904_95353" x1="1019.52" y1="461.17" x2="1044.13" y2="461.17" gradientUnits="userSpaceOnUse">
<stop offset="0.02" stop-color="#4D7CAB"/>
<stop offset="1" stop-color="#6599C4"/>
</linearGradient>
<linearGradient id="paint28_linear_3904_95353" x1="808.229" y1="327.91" x2="866.049" y2="327.91" gradientUnits="userSpaceOnUse">
<stop offset="0.02" stop-color="#4D7CAB"/>
<stop offset="1" stop-color="#6599C4"/>
</linearGradient>
<linearGradient id="paint29_linear_3904_95353" x1="878.84" y1="308.58" x2="1010.76" y2="308.58" gradientUnits="userSpaceOnUse">
<stop stop-color="#ED6D2E"/>
<stop offset="1" stop-color="#EE703B"/>
</linearGradient>
<linearGradient id="paint30_linear_3904_95353" x1="881.738" y1="331.46" x2="1235.81" y2="331.46" gradientUnits="userSpaceOnUse">
<stop offset="0.02" stop-color="#4D7CAB"/>
<stop offset="1" stop-color="#6599C4"/>
</linearGradient>
<linearGradient id="paint31_linear_3904_95353" x1="881.738" y1="344.83" x2="1235.81" y2="344.83" gradientUnits="userSpaceOnUse">
<stop offset="0.02" stop-color="#4D7CAB"/>
<stop offset="1" stop-color="#6599C4"/>
</linearGradient>
<linearGradient id="paint32_linear_3904_95353" x1="829.273" y1="587.846" x2="725.909" y2="674.979" gradientUnits="userSpaceOnUse">
<stop offset="0.11" stop-color="#1D1D1B"/>
<stop offset="1" stop-color="#1A1A1A"/>
</linearGradient>
<linearGradient id="paint33_linear_3904_95353" x1="845.956" y1="605.047" x2="885.227" y2="496.407" gradientUnits="userSpaceOnUse">
<stop offset="0.11" stop-color="#1D1D1B"/>
<stop offset="1" stop-color="#1A1A1A"/>
</linearGradient>
<clipPath id="clip0_3904_95353">
<rect width="1441" height="773.14" fill="white"/>
</clipPath>
</defs>
</svg>
