<svg width="2770" height="1125" viewBox="0 0 2770 1125" fill="none" xmlns="http://www.w3.org/2000/svg">
<path d="M744.736 781.065V1125H401.166C269.816 1125 163.324 1018.39 163.324 886.905V756.225C205.219 756.225 239.158 790.2 239.158 832.14V886.905C239.158 976.455 311.666 1049.04 401.121 1049.04H668.857V781.02C668.857 691.47 596.349 618.885 506.894 618.885H319.893C238.349 612.045 239.698 550.035 240.102 542.97H506.894C638.29 542.97 744.736 649.575 744.736 781.065Z" fill="#FFFFFF"/>
<path d="M315.025 618.885V618.525H162.323C72.6428 618.525 0 545.76 0 456.03V351.585C41.8955 351.585 75.8344 385.56 75.8344 427.5V456.03C75.8344 503.775 114.628 542.61 162.323 542.61H314.621V390.15C314.621 342.405 275.827 303.615 228.133 303.615H162.368C72.6878 303.615 0.0449619 230.85 0.0449619 141.12V0C41.9405 0 75.8794 33.975 75.8794 75.915V141.075C75.8794 188.91 114.628 227.655 162.368 227.655H228.133C317.678 227.655 390.455 300.555 390.455 390.105V407.88H390.86V542.97H391.804C391.399 550.035 390.051 612.045 471.594 618.885H315.025V618.885Z" fill="#FFFFFF"/>
<path d="M1256.99 189.085H1210.5C1176.75 189.085 1149.41 161.725 1149.41 127.93V108.895C1149.41 94.0904 1143.39 80.6803 1133.73 70.9603C1124.02 61.2853 1110.62 55.2554 1095.83 55.2554V127.93C1095.83 191.335 1147.17 242.725 1210.5 242.725H1256.99C1290.7 242.725 1318.12 270.175 1318.12 303.88V411.61H1210.5C1176.79 411.61 1149.41 384.16 1149.41 350.455V330.295C1149.41 315.49 1143.39 302.08 1133.73 292.36C1124.02 282.685 1110.62 276.655 1095.83 276.655V350.455C1095.83 413.86 1147.17 465.25 1210.5 465.25H1318.39V465.52H1371.25V294.025C1366.22 235.3 1316.91 189.085 1256.99 189.085Z" fill="#FFFFFF"/>
<path d="M1256.99 698.8H1210.5C1176.75 698.8 1149.41 671.44 1149.41 637.645V618.61C1149.41 603.805 1143.39 590.395 1133.73 580.675C1124.02 571 1110.62 564.97 1095.83 564.97V637.645C1095.83 701.05 1147.17 752.44 1210.5 752.44H1256.99C1290.7 752.44 1318.12 779.89 1318.12 813.595V921.325H1210.5C1176.79 921.325 1149.41 893.875 1149.41 860.17V840.01C1149.41 825.205 1143.39 811.795 1133.73 802.075C1124.02 792.4 1110.62 786.37 1095.83 786.37V860.17C1095.83 923.575 1147.17 974.965 1210.5 974.965H1318.39V975.235H1371.25V803.695C1366.22 745.015 1316.91 698.8 1256.99 698.8Z" fill="#FFFFFF"/>
<path d="M1622.63 387.85C1605.19 403.15 1583.17 411.25 1558.98 411.25C1511.87 411.25 1478.02 380.38 1472.81 333.715H1688.18L1688.27 327.055C1688.98 279.58 1675.45 240.295 1649.07 213.475C1625.51 189.535 1592.25 176.35 1555.43 176.35C1475.69 176.35 1415.54 238.945 1415.54 321.925C1415.54 405.085 1475.64 465.475 1558.44 465.475C1630.32 465.475 1669.65 420.655 1686.69 393.97L1690.11 388.66L1685.03 384.925C1666.15 371.02 1640.48 372.235 1622.63 387.85ZM1476.99 285.52C1488.54 250.96 1518.35 229.135 1554.98 229.135C1592.43 229.135 1618.68 249.565 1627.98 285.52H1476.99Z" fill="#FFFFFF"/>
<path d="M1737.13 112.228V460.483H1743.87C1773.09 460.483 1796.83 436.678 1796.83 407.473V59.2183H1790.08C1760.91 59.2183 1737.13 82.9783 1737.13 112.228Z" fill="#FFFFFF"/>
<path d="M2073.59 212.669C2052.46 189.989 2019.33 176.399 1983.5 176.399C1904.61 176.399 1845.14 238.544 1845.14 320.939C1845.14 403.334 1904.61 465.479 1983.5 465.479C2017.84 465.479 2049.76 452.969 2070.93 431.954L2071.29 460.439H2078.93C2105.1 460.439 2126.36 439.154 2126.36 412.964V181.394H2118.13C2097.81 181.439 2080.28 194.489 2073.59 212.669ZM2070.21 320.939C2070.21 373.454 2037.4 408.734 1988.54 408.734C1940.03 408.734 1904.83 371.789 1904.83 320.939C1904.83 269.774 1940.03 232.649 1988.54 232.649C2037.35 232.649 2070.21 268.154 2070.21 320.939Z" fill="#FFFFFF"/>
<path d="M2189.81 234.451V467.821C2189.81 487.441 2173.94 503.326 2154.34 503.326H2145.12C2113.79 503.326 2088.44 528.751 2088.44 560.071H2158.88C2218.17 560.071 2249.5 529.381 2249.5 471.331V181.441H2242.76C2213.5 181.441 2189.81 205.156 2189.81 234.451Z" fill="#FFFFFF"/>
<path d="M2222.96 76.3647H2189.74V120.6C2189.74 135.225 2201.61 147.15 2216.26 147.15H2249.48V102.915C2249.48 88.2897 2237.57 76.3647 2222.96 76.3647Z" fill="#FFFFFF"/>
<path d="M2526.27 212.669C2505.15 189.989 2472.02 176.399 2436.19 176.399C2357.3 176.399 2297.83 238.544 2297.83 320.939C2297.83 403.334 2357.3 465.479 2436.19 465.479C2470.53 465.479 2502.45 452.969 2523.62 431.954L2523.98 460.439H2531.62C2557.79 460.439 2579.05 439.154 2579.05 412.964V181.394H2570.82C2550.46 181.439 2532.93 194.489 2526.27 212.669ZM2522.86 320.939C2522.86 373.454 2490.04 408.734 2441.18 408.734C2392.68 408.734 2357.48 371.789 2357.48 320.939C2357.48 269.774 2392.68 232.649 2441.18 232.649C2490.04 232.649 2522.86 268.154 2522.86 320.939Z" fill="#FFFFFF"/>
<path d="M2729.04 181.441C2669.39 181.441 2640.39 210.961 2640.39 271.666V460.486H2647.13C2676.35 460.486 2700.09 436.681 2700.09 407.476V271.171C2700.09 245.431 2708.09 237.196 2733.04 237.196C2750.88 237.196 2765.4 222.661 2765.4 204.796V181.441H2729.04Z" fill="#FFFFFF"/>
<path d="M1613.58 897.567C1596.14 912.867 1574.11 920.967 1549.93 920.967C1502.82 920.967 1468.97 890.097 1463.75 843.432H1679.12L1679.21 836.772C1679.93 789.297 1666.4 750.012 1640.01 723.192C1616.46 699.252 1583.19 686.067 1546.38 686.067C1466.63 686.067 1406.48 748.662 1406.48 831.642C1406.48 914.802 1466.58 975.192 1549.39 975.192C1621.27 975.192 1660.6 930.372 1677.64 903.687L1681.05 898.377L1675.97 894.642C1657.09 880.737 1631.42 881.952 1613.58 897.567ZM1467.93 795.237C1479.49 760.677 1509.29 738.852 1545.93 738.852C1583.37 738.852 1609.62 759.282 1618.93 795.237H1467.93Z" fill="#FFFFFF"/>
<path d="M1829.69 816.204L1936.86 691.149H1922.2C1885.43 691.149 1850.59 707.124 1826.54 734.979L1778.71 790.419V568.974H1771.97C1742.75 568.974 1719.02 592.779 1719.02 621.984V970.239H1725.76C1754.98 970.239 1778.71 946.479 1778.71 917.229V877.854C1778.71 873.219 1782.31 871.599 1783.39 871.194C1784.51 870.789 1788.29 869.799 1791.21 873.399L1869.2 970.239H1943.73L1829.47 827.544C1826.86 824.169 1826.95 819.399 1829.69 816.204Z" fill="#FFFFFF"/>
<path d="M2133.03 897.567C2115.59 912.867 2093.56 920.967 2069.38 920.967C2022.27 920.967 1988.42 890.097 1983.21 843.432H2198.57L2198.66 836.772C2199.38 789.297 2185.85 750.012 2159.46 723.192C2135.91 699.252 2102.64 686.067 2065.83 686.067C1986.08 686.067 1925.94 748.662 1925.94 831.642C1925.94 914.802 1986.04 975.192 2068.84 975.192C2140.72 975.192 2180.05 930.372 2197.09 903.687L2200.51 898.377L2195.43 894.642C2176.55 880.737 2150.88 881.952 2133.03 897.567ZM1987.39 795.237C1998.94 760.677 2028.74 738.852 2065.38 738.852C2102.82 738.852 2129.03 759.282 2138.38 795.237H1987.39Z" fill="#FFFFFF"/>
<path d="M2361.48 714.464V691.109H2325.12C2265.47 691.109 2236.47 720.629 2236.47 781.334V970.154H2243.22C2272.43 970.154 2296.17 946.349 2296.17 917.144V780.839C2296.17 755.099 2304.17 746.864 2329.12 746.864C2346.96 746.909 2361.48 732.374 2361.48 714.464Z" fill="#FFFFFF"/>
<path d="M2422.9 588.367H2389.68V630.352C2389.68 644.977 2401.55 656.902 2416.2 656.902H2449.42V614.917C2449.42 600.247 2437.56 588.367 2422.9 588.367Z" fill="#FFFFFF"/>
<path d="M2389.71 744.158V977.528C2389.71 997.148 2373.84 1013.03 2354.24 1013.03H2348.08C2316.75 1013.03 2291.4 1038.46 2291.4 1069.78H2358.78C2418.07 1069.78 2449.4 1039.09 2449.4 981.038V691.148H2442.66C2413.4 691.148 2389.71 714.863 2389.71 744.158Z" fill="#FFFFFF"/>
<path d="M2761.71 691.146C2741.34 691.146 2723.81 704.196 2717.16 722.376C2696.03 699.696 2662.9 686.106 2627.07 686.106C2548.18 686.106 2488.71 748.251 2488.71 830.646C2488.71 913.041 2548.18 975.186 2627.07 975.186C2661.42 975.186 2693.33 962.676 2714.51 941.661L2714.87 970.146H2721.52C2748.22 970.146 2769.98 948.411 2769.98 921.636V691.101H2761.71V691.146ZM2713.74 830.646C2713.74 883.161 2680.93 918.441 2632.06 918.441C2583.56 918.441 2548.36 881.496 2548.36 830.646C2548.36 779.481 2583.56 742.356 2632.06 742.356C2680.93 742.356 2713.74 777.861 2713.74 830.646Z" fill="#FFFFFF"/>
</svg>